<svg width="38" height="38" viewBox="0 0 38 38" fill="none" xmlns="http://www.w3.org/2000/svg">
<path d="M19 36C28.3888 36 36 28.3888 36 19C36 9.61116 28.3888 2 19 2C9.61116 2 2 9.61116 2 19C2 28.3888 9.61116 36 19 36Z" fill="#0066CB" stroke="white" stroke-width="4"/>
<path d="M22.9608 24.1878C23.7297 23.0853 24.1416 21.7735 24.1409 20.4296C24.141 19.0811 23.7236 17.7656 22.9458 16.6636L25.0214 14.5892L24.8785 14.8864C24.7691 15.1167 24.7124 15.3686 24.7127 15.6236L24.7127 16.195C24.7106 16.8262 25.221 17.3396 25.8526 17.3416C25.8844 17.3417 25.9161 17.3405 25.9478 17.338C26.5528 17.2678 27.0069 16.7522 26.9999 16.1436L26.9999 12.1433C26.9999 11.5121 26.4879 11.0004 25.8563 11.0004L21.8536 11.0004C21.2793 10.9863 20.7778 11.3862 20.6642 11.949C20.5568 12.571 20.9743 13.1623 21.5966 13.2697C21.6664 13.2817 21.7371 13.2873 21.8079 13.2862L22.3797 13.2862C22.6434 13.2864 22.9037 13.2258 23.1402 13.1091L23.4261 12.9434L21.3275 15.0464C18.3507 12.9728 14.2555 13.7036 12.1806 16.6787C10.1058 19.6537 10.837 23.7465 13.8139 25.8201C16.7908 27.8937 20.886 27.1629 22.9608 24.1878ZM13.2764 20.4296C13.2764 18.0625 15.1965 16.1436 17.565 16.1436C19.9335 16.1436 21.8536 18.0625 21.8536 20.4296C21.8536 22.7967 19.9335 24.7156 17.565 24.7156C15.1978 24.7125 13.2796 22.7954 13.2764 20.4296Z" fill="white"/>
</svg>
